<svg version="1.1" viewBox="0.0 0.0 960.0 540.0" fill="none" stroke="none" stroke-linecap="square" stroke-miterlimit="10" xmlns:xlink="http://www.w3.org/1999/xlink" xmlns="http://www.w3.org/2000/svg"><clipPath id="g1231c4c3078_0_392.0"><path d="m0 0l960.0 0l0 540.0l-960.0 0l0 -540.0z" clip-rule="nonzero"/></clipPath><g clip-path="url(#g1231c4c3078_0_392.0)"><path fill="#ffffff" d="m0 0l960.0 0l0 540.0l-960.0 0z" fill-rule="evenodd"/><path fill="#ff8370" d="m40.0 165.43721l0 0c0 -14.3594055 11.640598 -26.0 26.0 -26.0l0 0c6.89563 0 13.508827 2.7392883 18.384773 7.6152344c4.875946 4.875946 7.6152267 11.489136 7.6152267 18.384766l0 0c0 14.3594055 -11.6405945 26.0 -26.0 26.0l0 0c-14.359402 0 -26.0 -11.6405945 -26.0 -26.0z" fill-rule="evenodd"/><path fill="#ff8370" d="m40.0 368.31186l0 0c0 -14.3594055 11.640598 -26.0 26.0 -26.0l0 0c6.89563 0 13.508827 2.7392578 18.384773 7.615204c4.875946 4.875946 7.6152267 11.489166 7.6152267 18.384796l0 0c0 14.359375 -11.6405945 26.0 -26.0 26.0l0 0c-14.359402 0 -26.0 -11.640625 -26.0 -26.0z" fill-rule="evenodd"/><path fill="#ff8370" d="m140.97258 267.33914l0 0c0 -14.359421 11.6405945 -26.000015 26.0 -26.000015l0 0c6.89563 0 13.50882 2.739273 18.384766 7.615219c4.875946 4.875946 7.6152344 11.489166 7.6152344 18.384796l0 0c0 14.359375 -11.6405945 26.0 -26.0 26.0l0 0c-14.3594055 0 -26.0 -11.640625 -26.0 -26.0z" fill-rule="evenodd"/><path fill="#ff8370" d="m241.94514 165.43721l0 0c0 -14.3594055 11.64061 -26.0 26.000015 -26.0l0 0c6.89563 0 13.50882 2.7392883 18.384766 7.6152344c4.875946 4.875946 7.6152344 11.489136 7.6152344 18.384766l0 0c0 14.3594055 -11.6405945 26.0 -26.0 26.0l0 0c-14.3594055 0 -26.000015 -11.6405945 -26.000015 -26.0z" fill-rule="evenodd"/><path fill="#ff8370" d="m241.94514 368.31186l0 0c0 -14.3594055 11.64061 -26.0 26.000015 -26.0l0 0c6.89563 0 13.50882 2.7392578 18.384766 7.615204c4.875946 4.875946 7.6152344 11.489166 7.6152344 18.384796l0 0c0 14.359375 -11.6405945 26.0 -26.0 26.0l0 0c-14.3594055 0 -26.000015 -11.640625 -26.000015 -26.0z" fill-rule="evenodd"/><path fill="#00b1b0" d="m346.51062 368.31186l0 0c0 -14.3594055 11.6405945 -26.0 26.0 -26.0l0 0c6.89563 0 13.50882 2.7392578 18.384766 7.615204c4.875946 4.875946 7.6152344 11.489166 7.6152344 18.384796l0 0c0 14.359375 -11.6405945 26.0 -26.0 26.0l0 0c-14.3594055 0 -26.0 -11.640625 -26.0 -26.0z" fill-rule="evenodd"/><path fill="#00b1b0" d="m451.07608 267.33914l0 0c0 -14.359421 11.6405945 -26.000015 26.0 -26.000015l0 0c6.89563 0 13.50882 2.739273 18.384766 7.615219c4.875946 4.875946 7.6152344 11.489166 7.6152344 18.384796l0 0c0 14.359375 -11.6405945 26.0 -26.0 26.0l0 0c-14.3594055 0 -26.0 -11.640625 -26.0 -26.0z" fill-rule="evenodd"/><path fill="#00b1b0" d="m551.24335 368.31186l0 0c0 -14.3594055 11.640625 -26.0 26.0 -26.0l0 0c6.89563 0 13.50885 2.7392578 18.384766 7.615204c4.8759766 4.875946 7.6152344 11.489166 7.6152344 18.384796l0 0c0 14.359375 -11.640564 26.0 -26.0 26.0l0 0c-14.359375 0 -26.0 -11.640625 -26.0 -26.0z" fill-rule="evenodd"/><path fill="#00b1b0" d="m346.51062 165.43721l0 0c0 -14.3594055 11.6405945 -26.0 26.0 -26.0l0 0c6.89563 0 13.50882 2.7392883 18.384766 7.6152344c4.875946 4.875946 7.6152344 11.489136 7.6152344 18.384766l0 0c0 14.3594055 -11.6405945 26.0 -26.0 26.0l0 0c-14.3594055 0 -26.0 -11.6405945 -26.0 -26.0z" fill-rule="evenodd"/><path fill="#00b1b0" d="m551.24335 165.43721l0 0c0 -14.3594055 11.640625 -26.0 26.0 -26.0l0 0c6.89563 0 13.50885 2.7392883 18.384766 7.6152344c4.8759766 4.875946 7.6152344 11.489136 7.6152344 18.384766l0 0c0 14.3594055 -11.640564 26.0 -26.0 26.0l0 0c-14.359375 0 -26.0 -11.6405945 -26.0 -26.0z" fill-rule="evenodd"/><path fill="#fec84d" d="m661.384 165.43721l0 0c0 -14.3594055 11.640625 -26.0 26.0 -26.0l0 0c6.89563 0 13.50885 2.7392883 18.384827 7.6152344c4.8759155 4.875946 7.6151733 11.489136 7.6151733 18.384766l0 0c0 14.3594055 -11.640564 26.0 -26.0 26.0l0 0c-14.359375 0 -26.0 -11.6405945 -26.0 -26.0z" fill-rule="evenodd"/><path fill="#fec84d" d="m866.11676 165.43721l0 0c0 -14.3594055 11.640564 -26.0 26.0 -26.0l0 0c6.89563 0 13.508789 2.7392883 18.384766 7.6152344c4.8759155 4.875946 7.6152344 11.489136 7.6152344 18.384766l0 0c0 14.3594055 -11.640625 26.0 -26.0 26.0l0 0c-14.359436 0 -26.0 -11.6405945 -26.0 -26.0z" fill-rule="evenodd"/><path fill="#fec84d" d="m866.11676 267.33914l0 0c0 -14.359421 11.640564 -26.000015 26.0 -26.000015l0 0c6.89563 0 13.508789 2.739273 18.384766 7.615219c4.8759155 4.875946 7.6152344 11.489166 7.6152344 18.384796l0 0c0 14.359375 -11.640625 26.0 -26.0 26.0l0 0c-14.359436 0 -26.0 -11.640625 -26.0 -26.0z" fill-rule="evenodd"/><path fill="#fec84d" d="m866.11676 368.31186l0 0c0 -14.3594055 11.640564 -26.0 26.0 -26.0l0 0c6.89563 0 13.508789 2.7392578 18.384766 7.615204c4.8759155 4.875946 7.6152344 11.489166 7.6152344 18.384796l0 0c0 14.359375 -11.640625 26.0 -26.0 26.0l0 0c-14.359436 0 -26.0 -11.640625 -26.0 -26.0z" fill-rule="evenodd"/><path fill="#fec84d" d="m661.384 368.31186l0 0c0 -14.3594055 11.640625 -26.0 26.0 -26.0l0 0c6.89563 0 13.50885 2.7392578 18.384827 7.615204c4.8759155 4.875946 7.6151733 11.489166 7.6151733 18.384796l0 0c0 14.359375 -11.640564 26.0 -26.0 26.0l0 0c-14.359375 0 -26.0 -11.640625 -26.0 -26.0z" fill-rule="evenodd"/><path fill="#fec84d" d="m661.384 267.33914l0 0c0 -14.359421 11.640625 -26.000015 26.0 -26.000015l0 0c6.89563 0 13.50885 2.739273 18.384827 7.615219c4.8759155 4.875946 7.6151733 11.489166 7.6151733 18.384796l0 0c0 14.359375 -11.640564 26.0 -26.0 26.0l0 0c-14.359375 0 -26.0 -11.640625 -26.0 -26.0z" fill-rule="evenodd"/><path fill="#000000" fill-opacity="0.0" d="m66.0 342.31186l0 -150.86615" fill-rule="evenodd"/><path stroke="#050533" stroke-width="12.0" stroke-linejoin="round" stroke-linecap="butt" d="m66.0 342.31186l0 -150.86615" fill-rule="evenodd"/><path fill="#000000" fill-opacity="0.0" d="m148.5878 248.95435l-64.18897 -65.13385" fill-rule="evenodd"/><path stroke="#050533" stroke-width="12.0" stroke-linejoin="round" stroke-linecap="butt" d="m148.5878 248.95435l-64.18897 -65.13385" fill-rule="evenodd"/><path fill="#000000" fill-opacity="0.0" d="m249.56038 183.82199l-64.18898 65.133865" fill-rule="evenodd"/><path stroke="#050533" stroke-width="12.0" stroke-linejoin="round" stroke-linecap="butt" d="m249.56038 183.82199l-64.18898 65.133865" fill-rule="evenodd"/><path fill="#000000" fill-opacity="0.0" d="m267.94516 191.43721l0 150.86613" fill-rule="evenodd"/><path stroke="#050533" stroke-width="12.0" stroke-linejoin="round" stroke-linecap="butt" d="m267.94516 191.43721l0 150.86613" fill-rule="evenodd"/><path fill="#000000" fill-opacity="0.0" d="m372.51062 191.43721l0 150.86613" fill-rule="evenodd"/><path stroke="#050533" stroke-width="12.0" stroke-linejoin="round" stroke-linecap="butt" d="m372.51062 191.43721l0 150.86613" fill-rule="evenodd"/><path fill="#000000" fill-opacity="0.0" d="m577.24335 191.43721l0 150.86613" fill-rule="evenodd"/><path stroke="#050533" stroke-width="12.0" stroke-linejoin="round" stroke-linecap="butt" d="m577.24335 191.43721l0 150.86613" fill-rule="evenodd"/><path fill="#000000" fill-opacity="0.0" d="m495.46085 285.7239l63.40158 64.188965" fill-rule="evenodd"/><path stroke="#050533" stroke-width="12.0" stroke-linejoin="round" stroke-linecap="butt" d="m495.46085 285.7239l63.40158 64.188965" fill-rule="evenodd"/><path fill="#000000" fill-opacity="0.0" d="m458.6913 285.7239l-67.811035 64.188965" fill-rule="evenodd"/><path stroke="#050533" stroke-width="12.0" stroke-linejoin="round" stroke-linecap="butt" d="m458.6913 285.7239l-67.811035 64.188965" fill-rule="evenodd"/><path fill="#000000" fill-opacity="0.0" d="m866.11676 165.43721l-152.72443 0" fill-rule="evenodd"/><path stroke="#050533" stroke-width="12.0" stroke-linejoin="round" stroke-linecap="butt" d="m866.11676 165.43721l-152.72443 0" fill-rule="evenodd"/><path fill="#000000" fill-opacity="0.0" d="m687.384 241.33913l0 -49.889755" fill-rule="evenodd"/><path stroke="#050533" stroke-width="12.0" stroke-linejoin="round" stroke-linecap="butt" d="m687.384 241.33913l0 -49.889755" fill-rule="evenodd"/><path fill="#000000" fill-opacity="0.0" d="m866.11676 267.33914l-152.72443 0" fill-rule="evenodd"/><path stroke="#050533" stroke-width="12.0" stroke-linejoin="round" stroke-linecap="butt" d="m866.11676 267.33914l-152.72443 0" fill-rule="evenodd"/><path fill="#000000" fill-opacity="0.0" d="m892.11676 342.31186l0 -48.97638" fill-rule="evenodd"/><path stroke="#050533" stroke-width="12.0" stroke-linejoin="round" stroke-linecap="butt" d="m892.11676 342.31186l0 -48.97638" fill-rule="evenodd"/><path fill="#000000" fill-opacity="0.0" d="m866.11676 368.31186l-152.72443 0" fill-rule="evenodd"/><path stroke="#050533" stroke-width="12.0" stroke-linejoin="round" stroke-linecap="butt" d="m866.11676 368.31186l-152.72443 0" fill-rule="evenodd"/><path fill="#000000" fill-opacity="0.0" d="m577.24335 139.43721c0 -52.78553 78.71655 -105.57894 157.4331 -105.57107c78.71649 0.007873535 157.43304 52.81703 157.43304 105.63407" fill-rule="evenodd"/><path stroke="#e42256" stroke-width="12.0" stroke-linejoin="round" stroke-linecap="butt" d="m577.24335 139.43721c0 -52.78553 78.71655 -105.57894 157.4331 -105.57107c78.71649 0.007873535 157.43304 52.81703 157.43304 105.63407" fill-rule="evenodd"/><path fill="#000000" fill-opacity="0.0" d="m66.0 394.31186c0 52.046173 76.62993 104.08447 153.25984 104.09235c76.62993 0.007873535 153.25984 -52.01468 153.25984 -104.02936" fill-rule="evenodd"/><path stroke="#e42256" stroke-width="12.0" stroke-linejoin="round" stroke-linecap="butt" d="m66.0 394.31186c0 52.046173 76.62993 104.08447 153.25984 104.09235c76.62993 0.007873535 153.25984 -52.01468 153.25984 -104.02936" fill-rule="evenodd"/></g></svg>